<mxfile host="app.diagrams.net" modified="2020-09-17T09:51:43.651Z" agent="5.0 (Windows NT 10.0; Win64; x64) AppleWebKit/537.36 (KHTML, like Gecko) Chrome/85.0.4183.102 Safari/537.36" etag="-d9Ixi4Sf7Q7MhZoim-x" version="13.7.2" type="github">
  <diagram id="rZRrIckjvRJwA0ze4U-K" name="第 1 页">
    <mxGraphModel dx="2121" dy="762" grid="1" gridSize="10" guides="1" tooltips="1" connect="1" arrows="1" fold="1" page="1" pageScale="1" pageWidth="827" pageHeight="1169" math="0" shadow="0">
      <root>
        <mxCell id="0" />
        <mxCell id="1" parent="0" />
        <mxCell id="R-o5nY8Fp78iXMryTSgY-28" value="«IDispatcher»&lt;br&gt;&lt;b&gt;事件分发器&lt;/b&gt;" style="html=1;" parent="1" vertex="1">
          <mxGeometry x="-25" y="920" width="110" height="50" as="geometry" />
        </mxCell>
        <mxCell id="R-o5nY8Fp78iXMryTSgY-30" value="«IspriteContainer»&lt;br&gt;&lt;b&gt;精灵图容器&lt;/b&gt;" style="html=1;" parent="1" vertex="1">
          <mxGeometry x="140" y="920" width="110" height="50" as="geometry" />
        </mxCell>
        <mxCell id="R-o5nY8Fp78iXMryTSgY-32" value="«Isprite»&lt;br&gt;&lt;b&gt;精灵&lt;/b&gt;" style="html=1;" parent="1" vertex="1">
          <mxGeometry x="350" y="680" width="110" height="50" as="geometry" />
        </mxCell>
        <mxCell id="R-o5nY8Fp78iXMryTSgY-33" value="Relation" style="endArrow=open;html=1;endSize=12;startArrow=diamondThin;startSize=14;startFill=0;edgeStyle=orthogonalEdgeStyle;exitX=1;exitY=0.5;exitDx=0;exitDy=0;entryX=0;entryY=0.5;entryDx=0;entryDy=0;" parent="1" source="R-o5nY8Fp78iXMryTSgY-30" target="R-o5nY8Fp78iXMryTSgY-32" edge="1">
          <mxGeometry relative="1" as="geometry">
            <mxPoint x="310" y="710" as="sourcePoint" />
            <mxPoint x="380" y="845" as="targetPoint" />
          </mxGeometry>
        </mxCell>
        <mxCell id="R-o5nY8Fp78iXMryTSgY-34" value="0..n" style="edgeLabel;resizable=0;html=1;align=left;verticalAlign=top;" parent="R-o5nY8Fp78iXMryTSgY-33" connectable="0" vertex="1">
          <mxGeometry x="-1" relative="1" as="geometry" />
        </mxCell>
        <mxCell id="R-o5nY8Fp78iXMryTSgY-35" value="1" style="edgeLabel;resizable=0;html=1;align=right;verticalAlign=top;" parent="R-o5nY8Fp78iXMryTSgY-33" connectable="0" vertex="1">
          <mxGeometry x="1" relative="1" as="geometry" />
        </mxCell>
        <mxCell id="R-o5nY8Fp78iXMryTSgY-36" value="«ITransformable»&lt;br&gt;&lt;b&gt;变换接口与坐标信息&lt;/b&gt;" style="html=1;" parent="1" vertex="1">
          <mxGeometry x="350" y="330" width="110" height="50" as="geometry" />
        </mxCell>
        <mxCell id="R-o5nY8Fp78iXMryTSgY-37" value="" style="endArrow=block;dashed=1;endFill=0;endSize=12;html=1;exitX=0.5;exitY=0;exitDx=0;exitDy=0;entryX=0.5;entryY=1;entryDx=0;entryDy=0;" parent="1" source="R-o5nY8Fp78iXMryTSgY-32" target="R-o5nY8Fp78iXMryTSgY-36" edge="1">
          <mxGeometry width="160" relative="1" as="geometry">
            <mxPoint x="520" y="290" as="sourcePoint" />
            <mxPoint x="680" y="290" as="targetPoint" />
          </mxGeometry>
        </mxCell>
        <mxCell id="R-o5nY8Fp78iXMryTSgY-1" value="Application" style="swimlane;fontStyle=1;align=center;verticalAlign=top;childLayout=stackLayout;horizontal=1;startSize=26;horizontalStack=0;resizeParent=1;resizeParentMax=0;resizeLast=0;collapsible=1;marginBottom=0;" parent="1" vertex="1" collapsed="1">
          <mxGeometry x="85" y="270" width="100" height="26" as="geometry">
            <mxRectangle x="90" y="160" width="160" height="96" as="alternateBounds" />
          </mxGeometry>
        </mxCell>
        <mxCell id="R-o5nY8Fp78iXMryTSgY-3" value="" style="line;strokeWidth=1;fillColor=none;align=left;verticalAlign=middle;spacingTop=-1;spacingLeft=3;spacingRight=3;rotatable=0;labelPosition=right;points=[];portConstraint=eastwest;" parent="R-o5nY8Fp78iXMryTSgY-1" vertex="1">
          <mxGeometry y="26" width="100" height="8" as="geometry" />
        </mxCell>
        <mxCell id="R-o5nY8Fp78iXMryTSgY-2" value="+ field: type" style="text;strokeColor=none;fillColor=none;align=left;verticalAlign=top;spacingLeft=4;spacingRight=4;overflow=hidden;rotatable=0;points=[[0,0.5],[1,0.5]];portConstraint=eastwest;" parent="R-o5nY8Fp78iXMryTSgY-1" vertex="1">
          <mxGeometry y="34" width="100" height="36" as="geometry" />
        </mxCell>
        <mxCell id="R-o5nY8Fp78iXMryTSgY-4" value="+ method(type): type" style="text;strokeColor=none;fillColor=none;align=left;verticalAlign=top;spacingLeft=4;spacingRight=4;overflow=hidden;rotatable=0;points=[[0,0.5],[1,0.5]];portConstraint=eastwest;" parent="R-o5nY8Fp78iXMryTSgY-1" vertex="1">
          <mxGeometry y="70" width="100" height="26" as="geometry" />
        </mxCell>
        <mxCell id="R-o5nY8Fp78iXMryTSgY-5" value="canvas2DApplication" style="swimlane;fontStyle=1;align=center;verticalAlign=top;childLayout=stackLayout;horizontal=1;startSize=26;horizontalStack=0;resizeParent=1;resizeParentMax=0;resizeLast=0;collapsible=1;marginBottom=0;" parent="1" vertex="1" collapsed="1">
          <mxGeometry x="60" y="410" width="150" height="26" as="geometry">
            <mxRectangle x="80" y="320" width="160" height="86" as="alternateBounds" />
          </mxGeometry>
        </mxCell>
        <mxCell id="R-o5nY8Fp78iXMryTSgY-6" value="+ field: type" style="text;strokeColor=none;fillColor=none;align=left;verticalAlign=top;spacingLeft=4;spacingRight=4;overflow=hidden;rotatable=0;points=[[0,0.5],[1,0.5]];portConstraint=eastwest;" parent="R-o5nY8Fp78iXMryTSgY-5" vertex="1">
          <mxGeometry y="26" width="150" height="26" as="geometry" />
        </mxCell>
        <mxCell id="R-o5nY8Fp78iXMryTSgY-7" value="" style="line;strokeWidth=1;fillColor=none;align=left;verticalAlign=middle;spacingTop=-1;spacingLeft=3;spacingRight=3;rotatable=0;labelPosition=right;points=[];portConstraint=eastwest;" parent="R-o5nY8Fp78iXMryTSgY-5" vertex="1">
          <mxGeometry y="52" width="150" height="8" as="geometry" />
        </mxCell>
        <mxCell id="R-o5nY8Fp78iXMryTSgY-8" value="+ method(type): type" style="text;strokeColor=none;fillColor=none;align=left;verticalAlign=top;spacingLeft=4;spacingRight=4;overflow=hidden;rotatable=0;points=[[0,0.5],[1,0.5]];portConstraint=eastwest;" parent="R-o5nY8Fp78iXMryTSgY-5" vertex="1">
          <mxGeometry y="60" width="150" height="26" as="geometry" />
        </mxCell>
        <mxCell id="R-o5nY8Fp78iXMryTSgY-38" value="«IRenderState»&lt;br&gt;&lt;b&gt;渲染状态&lt;/b&gt;" style="html=1;" parent="1" vertex="1">
          <mxGeometry x="570" y="800" width="110" height="50" as="geometry" />
        </mxCell>
        <mxCell id="R-o5nY8Fp78iXMryTSgY-39" value="" style="endArrow=block;dashed=1;endFill=0;endSize=12;html=1;exitX=0.5;exitY=1;exitDx=0;exitDy=0;entryX=0.5;entryY=0;entryDx=0;entryDy=0;" parent="1" source="R-o5nY8Fp78iXMryTSgY-32" target="R-o5nY8Fp78iXMryTSgY-38" edge="1">
          <mxGeometry width="160" relative="1" as="geometry">
            <mxPoint x="520" y="490" as="sourcePoint" />
            <mxPoint x="680" y="490" as="targetPoint" />
          </mxGeometry>
        </mxCell>
        <mxCell id="R-o5nY8Fp78iXMryTSgY-40" value="" style="endArrow=open;endFill=1;endSize=12;html=1;exitX=1;exitY=0.5;exitDx=0;exitDy=0;entryX=0;entryY=0.5;entryDx=0;entryDy=0;" parent="1" source="R-o5nY8Fp78iXMryTSgY-32" target="R-o5nY8Fp78iXMryTSgY-41" edge="1">
          <mxGeometry width="160" relative="1" as="geometry">
            <mxPoint x="520" y="490" as="sourcePoint" />
            <mxPoint x="620" y="585" as="targetPoint" />
          </mxGeometry>
        </mxCell>
        <mxCell id="R-o5nY8Fp78iXMryTSgY-48" value="单向持有" style="edgeLabel;html=1;align=center;verticalAlign=middle;resizable=0;points=[];" parent="R-o5nY8Fp78iXMryTSgY-40" vertex="1" connectable="0">
          <mxGeometry x="-0.145" relative="1" as="geometry">
            <mxPoint as="offset" />
          </mxGeometry>
        </mxCell>
        <mxCell id="R-o5nY8Fp78iXMryTSgY-41" value="«IShape»&lt;br&gt;&lt;b&gt;精灵&lt;/b&gt;" style="html=1;" parent="1" vertex="1">
          <mxGeometry x="740" y="680" width="110" height="50" as="geometry" />
        </mxCell>
        <mxCell id="R-o5nY8Fp78iXMryTSgY-42" value="Extends" style="endArrow=block;endSize=16;endFill=0;html=1;exitX=0.5;exitY=0;exitDx=0;exitDy=0;entryX=0.5;entryY=1;entryDx=0;entryDy=0;" parent="1" source="R-o5nY8Fp78iXMryTSgY-5" target="R-o5nY8Fp78iXMryTSgY-1" edge="1">
          <mxGeometry width="160" relative="1" as="geometry">
            <mxPoint x="515" y="500" as="sourcePoint" />
            <mxPoint x="675" y="500" as="targetPoint" />
          </mxGeometry>
        </mxCell>
        <mxCell id="R-o5nY8Fp78iXMryTSgY-43" value="Extends" style="endArrow=block;endSize=16;endFill=0;html=1;exitX=0.5;exitY=0;exitDx=0;exitDy=0;entryX=0.5;entryY=1;entryDx=0;entryDy=0;" parent="1" source="R-o5nY8Fp78iXMryTSgY-21" target="R-o5nY8Fp78iXMryTSgY-5" edge="1">
          <mxGeometry width="160" relative="1" as="geometry">
            <mxPoint x="515" y="500" as="sourcePoint" />
            <mxPoint x="675" y="500" as="targetPoint" />
          </mxGeometry>
        </mxCell>
        <mxCell id="R-o5nY8Fp78iXMryTSgY-44" value="«IDrawable»&lt;br&gt;&lt;b&gt;绘制流程相关&lt;/b&gt;" style="html=1;" parent="1" vertex="1">
          <mxGeometry x="727" y="330" width="110" height="50" as="geometry" />
        </mxCell>
        <mxCell id="R-o5nY8Fp78iXMryTSgY-45" value="«IHittable»&lt;br&gt;&lt;b&gt;碰撞检测方法&lt;/b&gt;" style="html=1;" parent="1" vertex="1">
          <mxGeometry x="490" y="480" width="110" height="50" as="geometry" />
        </mxCell>
        <mxCell id="R-o5nY8Fp78iXMryTSgY-46" value="Extends" style="endArrow=block;endSize=16;endFill=0;html=1;exitX=0.5;exitY=0;exitDx=0;exitDy=0;entryX=0.5;entryY=1;entryDx=0;entryDy=0;" parent="1" source="R-o5nY8Fp78iXMryTSgY-41" target="R-o5nY8Fp78iXMryTSgY-44" edge="1">
          <mxGeometry width="160" relative="1" as="geometry">
            <mxPoint x="520" y="590" as="sourcePoint" />
            <mxPoint x="680" y="590" as="targetPoint" />
          </mxGeometry>
        </mxCell>
        <mxCell id="R-o5nY8Fp78iXMryTSgY-47" value="Extends" style="endArrow=block;endSize=16;endFill=0;html=1;exitX=0.5;exitY=0;exitDx=0;exitDy=0;entryX=0.5;entryY=1;entryDx=0;entryDy=0;" parent="1" source="R-o5nY8Fp78iXMryTSgY-41" target="R-o5nY8Fp78iXMryTSgY-45" edge="1">
          <mxGeometry width="160" relative="1" as="geometry">
            <mxPoint x="520" y="590" as="sourcePoint" />
            <mxPoint x="680" y="590" as="targetPoint" />
          </mxGeometry>
        </mxCell>
        <mxCell id="R-o5nY8Fp78iXMryTSgY-50" value="" style="endArrow=open;endFill=1;endSize=12;html=1;dashed=1;exitX=0.436;exitY=0.04;exitDx=0;exitDy=0;exitPerimeter=0;entryX=1;entryY=0.5;entryDx=0;entryDy=0;" parent="1" source="R-o5nY8Fp78iXMryTSgY-45" target="R-o5nY8Fp78iXMryTSgY-36" edge="1">
          <mxGeometry width="160" relative="1" as="geometry">
            <mxPoint x="520" y="590" as="sourcePoint" />
            <mxPoint x="680" y="590" as="targetPoint" />
          </mxGeometry>
        </mxCell>
        <mxCell id="R-o5nY8Fp78iXMryTSgY-51" value="依赖" style="edgeLabel;html=1;align=center;verticalAlign=middle;resizable=0;points=[];" parent="R-o5nY8Fp78iXMryTSgY-50" vertex="1" connectable="0">
          <mxGeometry x="-0.1945" y="-1" relative="1" as="geometry">
            <mxPoint as="offset" />
          </mxGeometry>
        </mxCell>
        <mxCell id="R-o5nY8Fp78iXMryTSgY-52" value="" style="endArrow=open;endFill=1;endSize=12;html=1;dashed=1;exitX=0;exitY=0.5;exitDx=0;exitDy=0;entryX=1;entryY=0.5;entryDx=0;entryDy=0;" parent="1" source="R-o5nY8Fp78iXMryTSgY-44" target="R-o5nY8Fp78iXMryTSgY-36" edge="1">
          <mxGeometry width="160" relative="1" as="geometry">
            <mxPoint x="687.96" y="542" as="sourcePoint" />
            <mxPoint x="470" y="365" as="targetPoint" />
          </mxGeometry>
        </mxCell>
        <mxCell id="R-o5nY8Fp78iXMryTSgY-53" value="依赖" style="edgeLabel;html=1;align=center;verticalAlign=middle;resizable=0;points=[];" parent="R-o5nY8Fp78iXMryTSgY-52" vertex="1" connectable="0">
          <mxGeometry x="-0.1945" y="-1" relative="1" as="geometry">
            <mxPoint as="offset" />
          </mxGeometry>
        </mxCell>
        <mxCell id="R-o5nY8Fp78iXMryTSgY-55" value="" style="endArrow=open;endFill=1;endSize=12;html=1;dashed=1;exitX=0;exitY=0.5;exitDx=0;exitDy=0;" parent="1" source="R-o5nY8Fp78iXMryTSgY-44" target="R-o5nY8Fp78iXMryTSgY-38" edge="1">
          <mxGeometry width="160" relative="1" as="geometry">
            <mxPoint x="737" y="365" as="sourcePoint" />
            <mxPoint x="470" y="365" as="targetPoint" />
          </mxGeometry>
        </mxCell>
        <mxCell id="R-o5nY8Fp78iXMryTSgY-56" value="依赖" style="edgeLabel;html=1;align=center;verticalAlign=middle;resizable=0;points=[];" parent="R-o5nY8Fp78iXMryTSgY-55" vertex="1" connectable="0">
          <mxGeometry x="-0.1945" y="-1" relative="1" as="geometry">
            <mxPoint as="offset" />
          </mxGeometry>
        </mxCell>
        <mxCell id="R-o5nY8Fp78iXMryTSgY-21" value="Sprite2DApplication" style="swimlane;fontStyle=1;align=center;verticalAlign=top;childLayout=stackLayout;horizontal=1;startSize=26;horizontalStack=0;resizeParent=1;resizeParentMax=0;resizeLast=0;collapsible=1;marginBottom=0;" parent="1" vertex="1" collapsed="1">
          <mxGeometry x="60" y="550" width="150" height="26" as="geometry">
            <mxRectangle x="60" y="550" width="230" height="90" as="alternateBounds" />
          </mxGeometry>
        </mxCell>
        <mxCell id="R-o5nY8Fp78iXMryTSgY-23" value="" style="line;strokeWidth=1;fillColor=none;align=left;verticalAlign=middle;spacingTop=-1;spacingLeft=3;spacingRight=3;rotatable=0;labelPosition=right;points=[];portConstraint=eastwest;" parent="R-o5nY8Fp78iXMryTSgY-21" vertex="1">
          <mxGeometry y="26" width="150" height="8" as="geometry" />
        </mxCell>
        <mxCell id="R-o5nY8Fp78iXMryTSgY-22" value="+ _dispatcher: IDispatcher&#xa;" style="text;strokeColor=none;fillColor=none;align=left;verticalAlign=top;spacingLeft=4;spacingRight=4;overflow=hidden;rotatable=0;points=[[0,0.5],[1,0.5]];portConstraint=eastwest;" parent="R-o5nY8Fp78iXMryTSgY-21" vertex="1">
          <mxGeometry y="34" width="150" height="26" as="geometry" />
        </mxCell>
        <mxCell id="R-o5nY8Fp78iXMryTSgY-24" value="+ dispatchMouseEvent(type): void ..." style="text;strokeColor=none;fillColor=none;align=left;verticalAlign=top;spacingLeft=4;spacingRight=4;overflow=hidden;rotatable=0;points=[[0,0.5],[1,0.5]];portConstraint=eastwest;" parent="R-o5nY8Fp78iXMryTSgY-21" vertex="1">
          <mxGeometry y="60" width="150" height="30" as="geometry" />
        </mxCell>
        <mxCell id="R-o5nY8Fp78iXMryTSgY-57" value="操作sprite 容器&lt;br&gt;增删改查与事件处理" style="shape=note;whiteSpace=wrap;html=1;size=14;verticalAlign=top;align=left;spacingTop=-6;" parent="1" vertex="1">
          <mxGeometry x="-200" y="660" width="100" height="70" as="geometry" />
        </mxCell>
        <mxCell id="R-o5nY8Fp78iXMryTSgY-62" value="1" style="endArrow=open;html=1;endSize=12;startArrow=diamondThin;startSize=14;startFill=1;edgeStyle=orthogonalEdgeStyle;align=left;verticalAlign=bottom;dashed=1;exitX=0.5;exitY=0;exitDx=0;exitDy=0;entryX=0.5;entryY=1;entryDx=0;entryDy=0;" parent="1" source="R-o5nY8Fp78iXMryTSgY-28" target="R-o5nY8Fp78iXMryTSgY-58" edge="1">
          <mxGeometry x="-1" y="3" relative="1" as="geometry">
            <mxPoint x="-70" y="870" as="sourcePoint" />
            <mxPoint x="110" y="840" as="targetPoint" />
          </mxGeometry>
        </mxCell>
        <mxCell id="R-o5nY8Fp78iXMryTSgY-63" value="1" style="endArrow=open;html=1;endSize=12;startArrow=diamondThin;startSize=14;startFill=1;edgeStyle=orthogonalEdgeStyle;align=left;verticalAlign=bottom;dashed=1;exitX=0.5;exitY=0;exitDx=0;exitDy=0;entryX=0.5;entryY=1;entryDx=0;entryDy=0;" parent="1" source="R-o5nY8Fp78iXMryTSgY-30" target="R-o5nY8Fp78iXMryTSgY-58" edge="1">
          <mxGeometry x="-1" y="3" relative="1" as="geometry">
            <mxPoint x="15" y="930" as="sourcePoint" />
            <mxPoint x="107.5" y="720" as="targetPoint" />
          </mxGeometry>
        </mxCell>
        <mxCell id="R-o5nY8Fp78iXMryTSgY-64" value="" style="endArrow=open;endFill=1;endSize=12;html=1;exitX=0.5;exitY=1;exitDx=0;exitDy=0;" parent="1" source="R-o5nY8Fp78iXMryTSgY-21" target="R-o5nY8Fp78iXMryTSgY-58" edge="1">
          <mxGeometry width="160" relative="1" as="geometry">
            <mxPoint x="470" y="715" as="sourcePoint" />
            <mxPoint x="750" y="715" as="targetPoint" />
          </mxGeometry>
        </mxCell>
        <mxCell id="R-o5nY8Fp78iXMryTSgY-65" value="单向持有" style="edgeLabel;html=1;align=center;verticalAlign=middle;resizable=0;points=[];" parent="R-o5nY8Fp78iXMryTSgY-64" vertex="1" connectable="0">
          <mxGeometry x="-0.145" relative="1" as="geometry">
            <mxPoint as="offset" />
          </mxGeometry>
        </mxCell>
        <mxCell id="R-o5nY8Fp78iXMryTSgY-58" value="Sprite2DManageer" style="swimlane;fontStyle=1;align=center;verticalAlign=top;childLayout=stackLayout;horizontal=1;startSize=26;horizontalStack=0;resizeParent=1;resizeParentMax=0;resizeLast=0;collapsible=1;marginBottom=0;" parent="1" vertex="1" collapsed="1">
          <mxGeometry x="55" y="720" width="155" height="26" as="geometry">
            <mxRectangle x="20" y="684" width="215" height="86" as="alternateBounds" />
          </mxGeometry>
        </mxCell>
        <mxCell id="R-o5nY8Fp78iXMryTSgY-59" value="+ field: type" style="text;strokeColor=none;fillColor=none;align=left;verticalAlign=top;spacingLeft=4;spacingRight=4;overflow=hidden;rotatable=0;points=[[0,0.5],[1,0.5]];portConstraint=eastwest;" parent="R-o5nY8Fp78iXMryTSgY-58" vertex="1">
          <mxGeometry y="26" width="155" height="26" as="geometry" />
        </mxCell>
        <mxCell id="R-o5nY8Fp78iXMryTSgY-60" value="" style="line;strokeWidth=1;fillColor=none;align=left;verticalAlign=middle;spacingTop=-1;spacingLeft=3;spacingRight=3;rotatable=0;labelPosition=right;points=[];portConstraint=eastwest;" parent="R-o5nY8Fp78iXMryTSgY-58" vertex="1">
          <mxGeometry y="52" width="155" height="8" as="geometry" />
        </mxCell>
        <mxCell id="R-o5nY8Fp78iXMryTSgY-61" value="+ method(type): type" style="text;strokeColor=none;fillColor=none;align=left;verticalAlign=top;spacingLeft=4;spacingRight=4;overflow=hidden;rotatable=0;points=[[0,0.5],[1,0.5]];portConstraint=eastwest;" parent="R-o5nY8Fp78iXMryTSgY-58" vertex="1">
          <mxGeometry y="60" width="155" height="26" as="geometry" />
        </mxCell>
        <mxCell id="R-o5nY8Fp78iXMryTSgY-66" value="关键事件节点回调" style="shape=note;whiteSpace=wrap;html=1;size=14;verticalAlign=top;align=left;spacingTop=-6;" parent="1" vertex="1">
          <mxGeometry x="-200" y="930" width="100" height="70" as="geometry" />
        </mxCell>
        <mxCell id="R-o5nY8Fp78iXMryTSgY-67" value="visible&lt;br&gt;fillStyle&lt;br&gt;strokeStyle&lt;br&gt;fillStyle&lt;br&gt;lineWidth 等" style="shape=note;whiteSpace=wrap;html=1;size=14;verticalAlign=top;align=left;spacingTop=-6;" parent="1" vertex="1">
          <mxGeometry x="610" y="890" width="100" height="70" as="geometry" />
        </mxCell>
        <mxCell id="R-o5nY8Fp78iXMryTSgY-68" value="模板方法模式&lt;br&gt;draw的时候调用&lt;br&gt;Ishape的方法组&lt;br&gt;成流程" style="shape=note;whiteSpace=wrap;html=1;size=14;verticalAlign=top;align=left;spacingTop=-6;" parent="1" vertex="1">
          <mxGeometry x="430" y="590" width="100" height="70" as="geometry" />
        </mxCell>
        <mxCell id="R-o5nY8Fp78iXMryTSgY-73" value="addSprite 时创建双向引用" style="shape=note;whiteSpace=wrap;html=1;size=14;verticalAlign=top;align=left;spacingTop=-6;" parent="1" vertex="1">
          <mxGeometry x="320" y="860" width="120" height="50" as="geometry" />
        </mxCell>
        <mxCell id="-ZFiyGox08oDVRz6Do-6-1" value="模板方法模式&lt;br&gt;定义了一个开始渲染和结束渲染以及循环流程" style="shape=note;whiteSpace=wrap;html=1;size=14;verticalAlign=top;align=left;spacingTop=-6;" vertex="1" parent="1">
          <mxGeometry x="-180" y="270" width="100" height="70" as="geometry" />
        </mxCell>
      </root>
    </mxGraphModel>
  </diagram>
</mxfile>
